<?xml version="1.0" encoding="UTF-8" standalone="no"?>
<!DOCTYPE svg PUBLIC "-//W3C//DTD SVG 1.1//EN" "http://www.w3.org/Graphics/SVG/1.1/DTD/svg11.dtd">
<svg width="100%" height="100%" viewBox="0 0 3115 2744" version="1.1" xmlns="http://www.w3.org/2000/svg" xmlns:xlink="http://www.w3.org/1999/xlink" xml:space="preserve" xmlns:serif="http://www.serif.com/" style="fill-rule:evenodd;clip-rule:evenodd;stroke-linejoin:round;stroke-miterlimit:2;">
    <g transform="matrix(1,0,0,1,-15487,-3034.12)">
        <g transform="matrix(2.19366,0,0,2.19366,14800.5,2317.51)">
            <g transform="matrix(1,0,0,1,-2775.43,-127.963)">
                <path d="M4015.05,883.643L3175.3,883.643C3127.4,883.643 3088.43,924.619 3088.43,974.98L3088.43,1183.82C3088.43,1234.19 3127.4,1275.16 3175.3,1275.16L4015.05,1275.16C4062.95,1275.16 4101.91,1234.19 4101.91,1183.82L4101.91,974.98C4101.91,924.619 4062.95,883.643 4015.05,883.643ZM3961.4,1035.89C3950.49,1035.89 3946.76,1043.02 3946.76,1047.88C3946.76,1057.59 3959.53,1063.1 3973.25,1067.31C4002.56,1075.73 4033.72,1084.8 4033.72,1123.66C4033.72,1161.55 4001.61,1184.86 3963.28,1184.86C3937.09,1184.86 3897.51,1172.56 3892.83,1125.28L3944.26,1125.28C3946.45,1141.79 3961.71,1141.79 3963.89,1141.79C3972.62,1141.79 3981.97,1136.61 3981.97,1127.87C3981.97,1113.94 3969.2,1112.32 3936.15,1099.05C3913.72,1091.6 3895.01,1076.38 3895.01,1052.09C3895.01,1016.47 3926.18,992.821 3962.03,992.821C3984.78,992.821 4024.06,1002.21 4028.42,1049.5L3977.61,1049.5C3977.3,1045.61 3976.68,1035.89 3961.4,1035.89ZM3833.3,1178.71L3833.3,1159.29L3832.68,1159.29C3823.95,1176.77 3802.44,1184.86 3782.18,1184.86C3727.32,1184.86 3695.22,1140.17 3695.22,1088.67C3695.22,1029.74 3736.05,992.821 3782.18,992.821C3810.55,992.821 3826.45,1007.07 3832.68,1018.08L3833.3,1018.08L3833.3,998.977L3885.05,998.977L3885.05,1178.71L3833.3,1178.71ZM3249.82,1043.02C3225.19,1041.73 3208.67,1062.78 3208.67,1088.67C3208.67,1114.91 3225.19,1134.34 3249.82,1134.34C3271.32,1134.34 3281.61,1121.39 3287.22,1110.38L3339.9,1110.38C3330.55,1151.18 3295.95,1184.54 3249.2,1184.54C3196.83,1184.54 3156.62,1141.79 3156.62,1088.36C3156.62,1035.57 3196.2,992.821 3247.95,992.821C3293.77,992.821 3330.87,1024.24 3339.59,1068.29L3287.22,1068.29C3281.61,1055.97 3271.32,1043.02 3249.82,1043.02ZM3633.82,1178.71L3633.82,1083.18C3633.82,1068.6 3633.82,1043.34 3607.33,1043.34C3578.66,1043.34 3578.66,1070.55 3578.66,1080.58L3578.66,1178.71L3526.91,1178.71L3526.91,1080.91C3526.91,1071.19 3526.91,1043.34 3501.04,1043.34C3471.74,1043.34 3471.74,1072.49 3471.74,1083.18L3471.74,1178.71L3419.99,1178.71L3419.99,998.977L3468.31,998.977L3468.31,1018.08L3468.93,1018.08C3472.99,1010.63 3484.21,992.821 3516.62,992.821C3531.9,992.821 3552.78,998.33 3566.5,1024.88C3577.09,1007.4 3594.87,992.821 3621.35,992.821C3633.51,992.821 3652.84,995.734 3666.87,1010.96C3683.07,1028.77 3685.56,1040.76 3685.56,1080.58L3685.56,1178.71L3633.82,1178.71ZM3349.56,998.977L3401.3,998.977L3401.3,1178.71L3349.56,1178.71L3349.56,998.977ZM3789.66,1043.02C3760.06,1043.02 3746.96,1068.93 3746.96,1089.33C3746.96,1106.17 3758.8,1134.67 3789.98,1134.67C3822.39,1134.67 3833.3,1106.17 3833.3,1088.67C3833.3,1066.98 3818.97,1043.02 3789.66,1043.02ZM3349.56,939.068L3401.3,939.068L3401.3,979.868L3349.56,979.868L3349.56,939.068Z" style="fill:white;fill-rule:nonzero;"/>
            </g>
            <g transform="matrix(7.03569,0,0,7.03569,1239.61,718.19)">
                <path d="M0,-55.647L-28.229,-55.647C-35.037,-55.647 -40.575,-49.823 -40.575,-42.665L-40.575,-12.981C-40.575,-5.823 -35.037,0 -28.229,0L0,0C6.808,0 12.346,-5.823 12.346,-12.981L12.346,-42.665C12.346,-49.823 6.808,-55.647 0,-55.647" style="fill:white;fill-rule:nonzero;"/>
            </g>
            <g transform="matrix(0,-356.644,-356.644,0,1140.3,700.755)">
                <path d="M1,0.278C1,0.387 0.907,0.476 0.793,0.476L0.207,0.476C0.093,0.476 0,0.387 0,0.278L0,-0.278C0,-0.387 0.093,-0.476 0.207,-0.476L0.793,-0.476C0.907,-0.476 1,-0.387 1,-0.278L1,0.278Z" style="fill:white;fill-rule:nonzero;"/>
            </g>
            <g transform="matrix(7.03569,0,0,7.03569,1646.05,1147.19)">
                <path d="M0,-55.647L-28.229,-55.647C-35.037,-55.647 -40.575,-49.823 -40.575,-42.665L-40.575,-12.982C-40.575,-5.823 -35.037,0 -28.229,0L0,0C6.807,0 12.346,-5.823 12.346,-12.982L12.346,-42.665C12.346,-49.823 6.807,-55.647 0,-55.647" style="fill:white;fill-rule:nonzero;"/>
            </g>
            <g transform="matrix(0,-356.644,-356.644,0,1546.74,1129.76)">
                <path d="M1,0.278C1,0.387 0.907,0.475 0.793,0.475L0.207,0.475C0.093,0.475 0,0.387 0,0.278L0,-0.278C0,-0.387 0.093,-0.476 0.207,-0.476L0.793,-0.476C0.907,-0.476 1,-0.387 1,-0.278L1,0.278Z" style="fill:white;fill-rule:nonzero;"/>
            </g>
            <g transform="matrix(7.03569,0,0,7.03569,1239.61,1577.4)">
                <path d="M0,-55.647L-28.229,-55.647C-35.037,-55.647 -40.575,-49.823 -40.575,-42.665L-40.575,-12.981C-40.575,-5.823 -35.037,0 -28.229,0L0,0C6.808,0 12.346,-5.823 12.346,-12.981L12.346,-42.665C12.346,-49.823 6.808,-55.647 0,-55.647" style="fill:white;fill-rule:nonzero;"/>
            </g>
            <g transform="matrix(0,-356.644,-356.644,0,1140.3,1559.97)">
                <path d="M1,0.278C1,0.387 0.907,0.476 0.793,0.476L0.207,0.476C0.093,0.476 0,0.387 0,0.278L0,-0.278C0,-0.387 0.093,-0.476 0.207,-0.476L0.793,-0.476C0.907,-0.476 1,-0.387 1,-0.278L1,0.278Z" style="fill:white;fill-rule:nonzero;"/>
            </g>
            <g transform="matrix(7.03569,0,0,7.03569,1386.51,679)">
                <path d="M0,-0.571L1.094,-0.571C1.616,-0.571 1.973,-0.653 2.163,-0.817C2.354,-0.981 2.449,-1.197 2.449,-1.468C2.449,-1.641 2.403,-1.797 2.311,-1.934C2.219,-2.071 2.092,-2.174 1.929,-2.241C1.767,-2.309 1.465,-2.343 1.025,-2.343L0,-2.343L0,-0.571ZM-0.901,2.734L-0.901,-3.138L1.018,-3.138C1.674,-3.138 2.148,-3.084 2.442,-2.976C2.735,-2.867 2.969,-2.678 3.143,-2.408C3.317,-2.138 3.405,-1.851 3.405,-1.547C3.405,-1.118 3.259,-0.744 2.968,-0.426C2.677,-0.108 2.291,0.07 1.809,0.109C2.006,0.196 2.164,0.3 2.284,0.42C2.508,0.651 2.783,1.039 3.109,1.584L3.79,2.734L2.689,2.734L2.194,1.808C1.804,1.08 1.49,0.625 1.252,0.442C1.087,0.306 0.846,0.239 0.53,0.239L0,0.239L0,2.734L-0.901,2.734ZM1.375,-4.838C0.646,-4.838 -0.063,-4.641 -0.753,-4.248C-1.443,-3.855 -1.983,-3.294 -2.373,-2.563C-2.762,-1.833 -2.957,-1.072 -2.957,-0.281C-2.957,0.504 -2.766,1.258 -2.383,1.978C-2,2.699 -1.465,3.261 -0.777,3.663C-0.089,4.066 0.628,4.267 1.375,4.267C2.123,4.267 2.841,4.066 3.528,3.663C4.216,3.261 4.75,2.699 5.131,1.978C5.511,1.258 5.702,0.504 5.702,-0.281C5.702,-1.072 5.508,-1.833 5.121,-2.563C4.733,-3.294 4.193,-3.855 3.501,-4.248C2.809,-4.641 2.1,-4.838 1.375,-4.838M1.375,-5.742C2.247,-5.742 3.097,-5.507 3.927,-5.037C4.757,-4.567 5.404,-3.894 5.867,-3.019C6.33,-2.144 6.562,-1.232 6.562,-0.281C6.562,0.658 6.333,1.562 5.877,2.43C5.421,3.298 4.781,3.972 3.958,4.451C3.135,4.931 2.274,5.171 1.375,5.171C0.477,5.171 -0.384,4.931 -1.207,4.451C-2.03,3.972 -2.671,3.298 -3.129,2.43C-3.588,1.562 -3.817,0.658 -3.817,-0.281C-3.817,-1.232 -3.584,-2.144 -3.119,-3.019C-2.653,-3.894 -2.006,-4.567 -1.176,-5.037C-0.346,-5.507 0.504,-5.742 1.375,-5.742" style="fill:white;fill-rule:nonzero;"/>
            </g>
        </g>
    </g>
</svg>
